{
    "asset": {
        "copyright": "(C)2020 wiley",
        "generator": "maya2glTF v1.1.0 c13125a0af77",
        "version": "2.0"
    },
    "scenes": [
        {
            "nodes": [
                0
            ]
        }
    ],
    "scene": 0,
    "nodes": [
        {
            "name": "svgMesh7",
            "children": [
                1
            ],
            "translation": [
                0.0,
                5.012300491333008,
                0.0
            ]
        },
        {
            "name": "svgMesh7:PIV",
            "mesh": 0,
            "translation": [
                0.0,
                -5.012300491333008,
                0.0
            ]
        }
    ],
    "meshes": [
        {
            "name": "svgMesh7Shape",
            "extras": {
                "targetNames": []
            },
            "primitives": [
                {
                    "attributes": {
                        "NORMAL": 1,
                        "POSITION": 2,
                        "TANGENT": 3,
                        "TEXCOORD_0": 4
                    },
                    "indices": 0,
                    "mode": 4,
                    "material": 0
                }
            ]
        }
    ],
    "materials": [
        {
            "name": "lambert1",
            "pbrMetallicRoughness": {
                "baseColorFactor": [
                    0.4000000059604645,
                    0.4000000059604645,
                    0.4000000059604645,
                    1.0
                ],
                "metallicFactor": 0.0,
                "roughnessFactor": 1.0
            }
        }
    ],
    "accessors": [
        {
            "name": "svgMesh7Shape#0/indices",
            "bufferView": 0,
            "byteOffset": 0,
            "componentType": 5123,
            "count": 1440,
            "max": [
                725
            ],
            "min": [
                0
            ],
            "type": "SCALAR"
        },
        {
            "name": "svgMesh7Shape#0/vertices/NORMAL",
            "bufferView": 1,
            "byteOffset": 0,
            "componentType": 5126,
            "count": 726,
            "max": [
                1.0,
                0.996368169784546,
                0.9674674272537231
            ],
            "min": [
                -1.0,
                -0.9949522018432616,
                -0.7071068286895752
            ],
            "type": "VEC3"
        },
        {
            "name": "svgMesh7Shape#0/vertices/POSITION",
            "bufferView": 1,
            "byteOffset": 8712,
            "componentType": 5126,
            "count": 726,
            "max": [
                16.559301376342778,
                16.90018653869629,
                11.887886047363282
            ],
            "min": [
                -16.559301376342778,
                -10.166966438293456,
                -15.179266929626465
            ],
            "type": "VEC3"
        },
        {
            "name": "svgMesh7Shape#0/vertices/TANGENT",
            "bufferView": 2,
            "byteOffset": 0,
            "componentType": 5126,
            "count": 726,
            "max": [
                1.0,
                0.9966081976890564,
                0.7071068286895752,
                1.0
            ],
            "min": [
                -0.9973064064979552,
                -0.9957497715950012,
                -0.7076898217201233,
                1.0
            ],
            "type": "VEC4"
        },
        {
            "name": "svgMesh7Shape#0/vertices/TEXCOORD_0",
            "bufferView": 3,
            "byteOffset": 0,
            "componentType": 5126,
            "count": 726,
            "max": [
                1.0,
                1.0
            ],
            "min": [
                0.0,
                0.0
            ],
            "type": "VEC2"
        }
    ],
    "bufferViews": [
        {
            "name": "20box/data/indices-2",
            "buffer": 0,
            "byteOffset": 34848,
            "byteLength": 2880,
            "target": 34963
        },
        {
            "name": "20box/data/vertices-12",
            "buffer": 0,
            "byteOffset": 11616,
            "byteLength": 17424,
            "byteStride": 12,
            "target": 34962
        },
        {
            "name": "20box/data/vertices-16",
            "buffer": 0,
            "byteOffset": 0,
            "byteLength": 11616,
            "byteStride": 16,
            "target": 34962
        },
        {
            "name": "20box/data/vertices-8",
            "buffer": 0,
            "byteOffset": 29040,
            "byteLength": 5808,
            "byteStride": 8,
            "target": 34962
        }
    ],
    "buffers": [
        {
            "name": "20box/data",
            "byteLength": 37728,
            "uri": "20box0.bin"
        }
    ]
}
