{
    "asset": {
        "copyright": "(C)2020 wiley",
        "generator": "maya2glTF v1.1.0 c13125a0af77",
        "version": "2.0"
    },
    "scenes": [
        {
            "nodes": [
                0
            ]
        }
    ],
    "scene": 0,
    "nodes": [
        {
            "name": "pCube8",
            "children": [
                1
            ],
            "translation": [
                0.0,
                -2.361515998840332,
                0.0
            ]
        },
        {
            "name": "pCube8:PIV",
            "mesh": 0,
            "translation": [
                0.0,
                2.361515998840332,
                0.0
            ]
        }
    ],
    "meshes": [
        {
            "name": "pCube8Shape",
            "extras": {
                "targetNames": []
            },
            "primitives": [
                {
                    "attributes": {
                        "COLOR_0": 1,
                        "NORMAL": 2,
                        "POSITION": 3
                    },
                    "indices": 0,
                    "mode": 4,
                    "material": 0
                },
                {
                    "attributes": {
                        "NORMAL": 5,
                        "POSITION": 6,
                        "TANGENT": 7,
                        "TEXCOORD_0": 8
                    },
                    "indices": 4,
                    "mode": 4,
                    "material": 0
                },
                {
                    "attributes": {
                        "NORMAL": 10,
                        "POSITION": 11
                    },
                    "indices": 9,
                    "mode": 4,
                    "material": 0
                }
            ]
        }
    ],
    "materials": [
        {
            "name": "aiStandardSurface1",
            "pbrMetallicRoughness": {
                "metallicFactor": 0.0,
                "roughnessFactor": 0.0
            }
        }
    ],
    "accessors": [
        {
            "name": "pCube8Shape#0/indices",
            "bufferView": 0,
            "byteOffset": 0,
            "componentType": 5123,
            "count": 678,
            "max": [
                250
            ],
            "min": [
                0
            ],
            "type": "SCALAR"
        },
        {
            "name": "pCube8Shape#0/vertices/COLOR_0",
            "bufferView": 1,
            "byteOffset": 0,
            "componentType": 5126,
            "count": 251,
            "max": [
                0.0,
                0.0,
                0.0,
                1.0
            ],
            "min": [
                0.0,
                0.0,
                0.0,
                0.9999997615814208
            ],
            "type": "VEC4"
        },
        {
            "name": "pCube8Shape#0/vertices/NORMAL",
            "bufferView": 2,
            "byteOffset": 0,
            "componentType": 5126,
            "count": 251,
            "max": [
                0.966560959815979,
                0.9966063499450684,
                0.2529376447200775
            ],
            "min": [
                -0.9709734916687012,
                -0.996601700782776,
                -0.252932071685791
            ],
            "type": "VEC3"
        },
        {
            "name": "pCube8Shape#0/vertices/POSITION",
            "bufferView": 2,
            "byteOffset": 3012,
            "componentType": 5126,
            "count": 251,
            "max": [
                3.669097900390625,
                -0.2480563521385193,
                4.004112243652344
            ],
            "min": [
                -3.49713397026062,
                -2.7168638706207277,
                1.460752248764038
            ],
            "type": "VEC3"
        },
        {
            "name": "pCube8Shape#1/indices",
            "bufferView": 0,
            "byteOffset": 1356,
            "componentType": 5123,
            "count": 453,
            "max": [
                166
            ],
            "min": [
                0
            ],
            "type": "SCALAR"
        },
        {
            "name": "pCube8Shape#1/vertices/NORMAL",
            "bufferView": 2,
            "byteOffset": 6024,
            "componentType": 5126,
            "count": 167,
            "max": [
                1.0,
                0.7071068286895752,
                0.70710688829422
            ],
            "min": [
                -1.0,
                -0.7071069478988648,
                -0.7071068286895752
            ],
            "type": "VEC3"
        },
        {
            "name": "pCube8Shape#1/vertices/POSITION",
            "bufferView": 2,
            "byteOffset": 8028,
            "componentType": 5126,
            "count": 167,
            "max": [
                16.559301376342778,
                11.172060012817385,
                13.533576011657717
            ],
            "min": [
                -16.559301376342778,
                -15.895092010498049,
                -13.533576011657717
            ],
            "type": "VEC3"
        },
        {
            "name": "pCube8Shape#1/vertices/TANGENT",
            "bufferView": 1,
            "byteOffset": 4016,
            "componentType": 5126,
            "count": 167,
            "max": [
                1.0,
                0.7071068286895752,
                0.7071068286895752,
                1.0
            ],
            "min": [
                -1.260000033198594e-7,
                -0.7071068286895752,
                -0.7071068286895752,
                -1.0
            ],
            "type": "VEC4"
        },
        {
            "name": "pCube8Shape#1/vertices/TEXCOORD_0",
            "bufferView": 3,
            "byteOffset": 0,
            "componentType": 5126,
            "count": 167,
            "max": [
                0.875,
                1.0
            ],
            "min": [
                0.125,
                0.0
            ],
            "type": "VEC2"
        },
        {
            "name": "pCube8Shape#2/indices",
            "bufferView": 0,
            "byteOffset": 2262,
            "componentType": 5123,
            "count": 351,
            "max": [
                118
            ],
            "min": [
                0
            ],
            "type": "SCALAR"
        },
        {
            "name": "pCube8Shape#2/vertices/NORMAL",
            "bufferView": 2,
            "byteOffset": 10032,
            "componentType": 5126,
            "count": 119,
            "max": [
                0.23918171226978306,
                -0.08228247612714768,
                0.9674822688102722
            ],
            "min": [
                0.23918163776397706,
                -0.08228249847888947,
                0.9674821496009828
            ],
            "type": "VEC3"
        },
        {
            "name": "pCube8Shape#2/vertices/POSITION",
            "bufferView": 2,
            "byteOffset": 11460,
            "componentType": 5126,
            "count": 119,
            "max": [
                3.463932514190674,
                -0.2480563521385193,
                3.1125521659851076
            ],
            "min": [
                -3.49713397026062,
                -2.526373624801636,
                1.460752248764038
            ],
            "type": "VEC3"
        }
    ],
    "bufferViews": [
        {
            "name": "20box /data/indices-2",
            "buffer": 0,
            "byteOffset": 20912,
            "byteLength": 2964,
            "target": 34963
        },
        {
            "name": "20box /data/vertices-16",
            "buffer": 0,
            "byteOffset": 0,
            "byteLength": 6688,
            "byteStride": 16,
            "target": 34962
        },
        {
            "name": "20box /data/vertices-12",
            "buffer": 0,
            "byteOffset": 6688,
            "byteLength": 12888,
            "byteStride": 12,
            "target": 34962
        },
        {
            "name": "20box /data/vertices-8",
            "buffer": 0,
            "byteOffset": 19576,
            "byteLength": 1336,
            "byteStride": 8,
            "target": 34962
        }
    ],
    "buffers": [
        {
            "name": "20box /data",
            "byteLength": 23876,
            "uri": "20box 0.bin"
        }
    ]
}
