{
    "asset": {
        "copyright": "(C)2020 wiley",
        "generator": "maya2glTF v1.1.0 c13125a0af77",
        "version": "2.0"
    },
    "scenes": [
        {
            "nodes": [
                0
            ]
        }
    ],
    "scene": 0,
    "nodes": [
        {
            "name": "Years",
            "children": [
                1
            ],
            "translation": [
                0.0,
                -1.2224433422088624,
                0.0
            ]
        },
        {
            "name": "Years:PIV",
            "mesh": 0,
            "translation": [
                0.0,
                1.2224433422088624,
                0.0
            ]
        }
    ],
    "meshes": [
        {
            "name": "YearsShape",
            "extras": {
                "targetNames": []
            },
            "primitives": [
                {
                    "attributes": {
                        "COLOR_0": 1,
                        "NORMAL": 2,
                        "POSITION": 3
                    },
                    "indices": 0,
                    "mode": 4,
                    "material": 0
                },
                {
                    "attributes": {
                        "COLOR_0": 5,
                        "NORMAL": 6,
                        "POSITION": 7,
                        "TANGENT": 8,
                        "TEXCOORD_0": 9
                    },
                    "indices": 4,
                    "mode": 4,
                    "material": 0
                },
                {
                    "attributes": {
                        "NORMAL": 11,
                        "POSITION": 12,
                        "TANGENT": 13,
                        "TEXCOORD_0": 14
                    },
                    "indices": 10,
                    "mode": 4,
                    "material": 0
                }
            ]
        }
    ],
    "materials": [
        {
            "pbrMetallicRoughness": {}
        }
    ],
    "accessors": [
        {
            "name": "YearsShape#0/indices",
            "bufferView": 0,
            "byteOffset": 0,
            "componentType": 5123,
            "count": 2787,
            "max": [
                1063
            ],
            "min": [
                0
            ],
            "type": "SCALAR"
        },
        {
            "name": "YearsShape#0/vertices/COLOR_0",
            "bufferView": 1,
            "byteOffset": 0,
            "componentType": 5126,
            "count": 1064,
            "max": [
                0.0,
                0.0,
                0.0,
                1.0
            ],
            "min": [
                0.0,
                0.0,
                0.0,
                0.9999997615814208
            ],
            "type": "VEC4"
        },
        {
            "name": "YearsShape#0/vertices/NORMAL",
            "bufferView": 2,
            "byteOffset": 0,
            "componentType": 5126,
            "count": 1064,
            "max": [
                0.8020563125610352,
                0.988659918308258,
                0.7987586259841919
            ],
            "min": [
                -0.8020896315574646,
                -0.9886543154716492,
                -0.6157333254814148
            ],
            "type": "VEC3"
        },
        {
            "name": "YearsShape#0/vertices/POSITION",
            "bufferView": 2,
            "byteOffset": 12768,
            "componentType": 5126,
            "count": 1064,
            "max": [
                8.733253479003907,
                5.341509342193604,
                7.789155960083008
            ],
            "min": [
                -5.658838748931885,
                -4.802922248840332,
                -1.0256030559539796
            ],
            "type": "VEC3"
        },
        {
            "name": "YearsShape#1/indices",
            "bufferView": 0,
            "byteOffset": 5574,
            "componentType": 5123,
            "count": 927,
            "max": [
                346
            ],
            "min": [
                0
            ],
            "type": "SCALAR"
        },
        {
            "name": "YearsShape#1/vertices/COLOR_0",
            "bufferView": 1,
            "byteOffset": 17024,
            "componentType": 5126,
            "count": 347,
            "max": [
                0.0,
                0.0,
                0.0,
                1.0
            ],
            "min": [
                0.0,
                0.0,
                0.0,
                0.9999997615814208
            ],
            "type": "VEC4"
        },
        {
            "name": "YearsShape#1/vertices/NORMAL",
            "bufferView": 2,
            "byteOffset": 25536,
            "componentType": 5126,
            "count": 347,
            "max": [
                0.8020685911178589,
                0.9886587262153626,
                0.7886210680007935
            ],
            "min": [
                -0.8020867705345154,
                -0.9595346450805664,
                -0.6157367825508118
            ],
            "type": "VEC3"
        },
        {
            "name": "YearsShape#1/vertices/POSITION",
            "bufferView": 2,
            "byteOffset": 29700,
            "componentType": 5126,
            "count": 347,
            "max": [
                6.532482147216797,
                5.266992568969727,
                7.789155960083008
            ],
            "min": [
                -8.920818328857422,
                -4.794851303100586,
                -0.9019029140472412
            ],
            "type": "VEC3"
        },
        {
            "name": "YearsShape#1/vertices/TANGENT",
            "bufferView": 1,
            "byteOffset": 22576,
            "componentType": 5126,
            "count": 347,
            "max": [
                0.7942054271697998,
                0.9886603355407716,
                0.78790682554245,
                1.0
            ],
            "min": [
                -0.74746173620224,
                -0.9599167108535768,
                -0.7879072427749634,
                -1.0
            ],
            "type": "VEC4"
        },
        {
            "name": "YearsShape#1/vertices/TEXCOORD_0",
            "bufferView": 3,
            "byteOffset": 0,
            "componentType": 5126,
            "count": 347,
            "max": [
                0.9649579524993897,
                0.9980079531669616
            ],
            "min": [
                0.16221380233764649,
                0.007121502887457609
            ],
            "type": "VEC2"
        },
        {
            "name": "YearsShape#2/indices",
            "bufferView": 0,
            "byteOffset": 7428,
            "componentType": 5123,
            "count": 1260,
            "max": [
                591
            ],
            "min": [
                0
            ],
            "type": "SCALAR"
        },
        {
            "name": "YearsShape#2/vertices/NORMAL",
            "bufferView": 2,
            "byteOffset": 33864,
            "componentType": 5126,
            "count": 592,
            "max": [
                0.10096323490142822,
                0.5581448078155518,
                0.8319908976554871
            ],
            "min": [
                0.08730272948741913,
                0.5455251932144165,
                0.8251379728317261
            ],
            "type": "VEC3"
        },
        {
            "name": "YearsShape#2/vertices/POSITION",
            "bufferView": 2,
            "byteOffset": 40968,
            "componentType": 5126,
            "count": 592,
            "max": [
                45.39300537109375,
                37.32365417480469,
                28.759105682373048
            ],
            "min": [
                -44.84275436401367,
                -36.51624298095703,
                -23.872905731201173
            ],
            "type": "VEC3"
        },
        {
            "name": "YearsShape#2/vertices/TANGENT",
            "bufferView": 1,
            "byteOffset": 28128,
            "componentType": 5126,
            "count": 592,
            "max": [
                0.9463475346565248,
                0.3414439558982849,
                -0.2460271567106247,
                1.0
            ],
            "min": [
                0.8811524510383606,
                0.20951606333255769,
                -0.3270877003669739,
                1.0
            ],
            "type": "VEC4"
        },
        {
            "name": "YearsShape#2/vertices/TEXCOORD_0",
            "bufferView": 3,
            "byteOffset": 2776,
            "componentType": 5126,
            "count": 592,
            "max": [
                0.625,
                0.75
            ],
            "min": [
                0.375,
                0.5
            ],
            "type": "VEC2"
        }
    ],
    "bufferViews": [
        {
            "name": "20years/data/indices-2",
            "buffer": 0,
            "byteOffset": 93184,
            "byteLength": 9948,
            "target": 34963
        },
        {
            "name": "20years/data/vertices-16",
            "buffer": 0,
            "byteOffset": 0,
            "byteLength": 37600,
            "byteStride": 16,
            "target": 34962
        },
        {
            "name": "20years/data/vertices-12",
            "buffer": 0,
            "byteOffset": 37600,
            "byteLength": 48072,
            "byteStride": 12,
            "target": 34962
        },
        {
            "name": "20years/data/vertices-8",
            "buffer": 0,
            "byteOffset": 85672,
            "byteLength": 7512,
            "byteStride": 8,
            "target": 34962
        }
    ],
    "buffers": [
        {
            "name": "20years/data",
            "byteLength": 103132,
            "uri": "20years0.bin"
        }
    ]
}
