{
    "asset": {
        "copyright": "(C)2020 wiley",
        "generator": "maya2glTF v1.1.0 c13125a0af77",
        "version": "2.0"
    },
    "scenes": [
        {
            "nodes": [
                0
            ]
        }
    ],
    "scene": 0,
    "nodes": [
        {
            "name": "pCone1",
            "mesh": 0
        }
    ],
    "meshes": [
        {
            "name": "pConeShape1",
            "extras": {
                "targetNames": []
            },
            "primitives": [
                {
                    "attributes": {
                        "NORMAL": 1,
                        "POSITION": 2,
                        "TANGENT": 3,
                        "TEXCOORD_0": 4
                    },
                    "indices": 0,
                    "mode": 4,
                    "material": 0
                }
            ]
        }
    ],
    "materials": [
        {
            "name": "lambert1",
            "pbrMetallicRoughness": {
                "baseColorFactor": [
                    0.4000000059604645,
                    0.4000000059604645,
                    0.4000000059604645,
                    1.0
                ],
                "metallicFactor": 0.0,
                "roughnessFactor": 1.0
            }
        }
    ],
    "accessors": [
        {
            "name": "pConeShape1#0/indices",
            "bufferView": 0,
            "byteOffset": 0,
            "componentType": 5123,
            "count": 114,
            "max": [
                41
            ],
            "min": [
                0
            ],
            "type": "SCALAR"
        },
        {
            "name": "pConeShape1#0/vertices/NORMAL",
            "bufferView": 1,
            "byteOffset": 0,
            "componentType": 5126,
            "count": 42,
            "max": [
                0.8944272398948669,
                1.0,
                0.8944272994995117
            ],
            "min": [
                -0.8944271802902222,
                -1.0,
                -0.8944271206855774
            ],
            "type": "VEC3"
        },
        {
            "name": "pConeShape1#0/vertices/POSITION",
            "bufferView": 1,
            "byteOffset": 504,
            "componentType": 5126,
            "count": 42,
            "max": [
                1.0,
                1.0,
                1.0000001192092896
            ],
            "min": [
                -1.000000238418579,
                -1.0,
                -1.0000004768371585
            ],
            "type": "VEC3"
        },
        {
            "name": "pConeShape1#0/vertices/TANGENT",
            "bufferView": 2,
            "byteOffset": 0,
            "componentType": 5126,
            "count": 42,
            "max": [
                1.0,
                0.0631958469748497,
                1.0,
                1.0
            ],
            "min": [
                -1.0,
                -0.06319592893123627,
                -1.0,
                1.0
            ],
            "type": "VEC4"
        },
        {
            "name": "pConeShape1#0/vertices/TEXCOORD_0",
            "bufferView": 3,
            "byteOffset": 0,
            "componentType": 5126,
            "count": 42,
            "max": [
                0.75,
                1.0000001192092896
            ],
            "min": [
                0.24999994039535526,
                0.0
            ],
            "type": "VEC2"
        }
    ],
    "bufferViews": [
        {
            "name": "cone/data/indices-2",
            "buffer": 0,
            "byteOffset": 2016,
            "byteLength": 228,
            "target": 34963
        },
        {
            "name": "cone/data/vertices-12",
            "buffer": 0,
            "byteOffset": 672,
            "byteLength": 1008,
            "byteStride": 12,
            "target": 34962
        },
        {
            "name": "cone/data/vertices-16",
            "buffer": 0,
            "byteOffset": 0,
            "byteLength": 672,
            "byteStride": 16,
            "target": 34962
        },
        {
            "name": "cone/data/vertices-8",
            "buffer": 0,
            "byteOffset": 1680,
            "byteLength": 336,
            "byteStride": 8,
            "target": 34962
        }
    ],
    "buffers": [
        {
            "name": "cone/data",
            "byteLength": 2244,
            "uri": "cone0.bin"
        }
    ]
}
